<svg xmlns="http://www.w3.org/2000/svg" width="1200" height="630" viewBox="0 0 1200 630">
  <defs>
    <radialGradient id="bg" cx="50%" cy="20%" r="80%">
      <stop offset="0" stop-color="#172748"/>
      <stop offset="0.55" stop-color="#0b1020"/>
      <stop offset="1" stop-color="#060810"/>
    </radialGradient>
    <linearGradient id="accent" x1="0" y1="0" x2="1" y2="0">
      <stop offset="0" stop-color="#78b9ff"/>
      <stop offset="1" stop-color="#397cff"/>
    </linearGradient>
  </defs>
  <rect width="1200" height="630" fill="url(#bg)"/>
  <g opacity=".12" stroke="#7db8ff">
    <path d="M0 90h1200M0 180h1200M0 270h1200M0 360h1200M0 450h1200M0 540h1200"/>
    <path d="M90 0v630M180 0v630M270 0v630M360 0v630M450 0v630M540 0v630M630 0v630M720 0v630M810 0v630M900 0v630M990 0v630M1080 0v630"/>
  </g>
  <text x="600" y="195" text-anchor="middle" fill="#78b9ff" font-family="monospace" font-size="28" letter-spacing="10">DEVELOPER &amp; CREATOR</text>
  <text x="600" y="365" text-anchor="middle" fill="#f4f7ff" font-family="Arial, sans-serif" font-weight="900" font-size="150" letter-spacing="-8">NIHIT</text>
  <rect x="320" y="390" width="560" height="34" rx="4" fill="url(#accent)" opacity=".72"/>
  <text x="600" y="495" text-anchor="middle" fill="#aeb7cb" font-family="Arial, sans-serif" font-size="34">Nihit Sunhare · Rust · Open Source · Ricing</text>
</svg>
